<?xml version="1.0" standalone="no"?><!DOCTYPE svg PUBLIC "-//W3C//DTD SVG 1.1//EN" "http://www.w3.org/Graphics/SVG/1.1/DTD/svg11.dtd"><svg class="icon" width="200px" height="200.00px" viewBox="0 0 1024 1024" version="1.1" xmlns="http://www.w3.org/2000/svg"><path fill="#333333" d="M409.526857 465.334857c-0.073143 55.296 46.445714 101.302857 101.888 100.754286 55.442286-0.512 101.412571-45.970286 101.412571-100.205714 0-54.491429-45.970286-99.657143-101.595429-99.766857C455.277714 366.006857 409.6 410.550857 409.526857 465.334857L409.526857 465.334857M510.756571 906.203429c-73.910857-99.328-150.125714-194.962286-218.770286-295.570286C181.613714 448.877714 280.758857 237.531429 471.113143 208.713143c166.692571-25.234286 310.052571 103.533714 303.616 269.824-2.011429 51.419429-18.688 98.084571-49.298286 139.52-68.096 92.086857-136.704 183.844571-205.092571 275.712C517.595429 897.462857 514.706286 901.083429 510.756571 906.203429L510.756571 906.203429M510.756571 906.203429 510.756571 906.203429z" /></svg>